HIERARCHY
ROOT Hips
{
	OFFSET 0.000000 0.000000 0.000000
	CHANNELS 6 Xposition Yposition Zposition Zrotation Yrotation Xrotation 
	JOINT LHipJoint
	{
		OFFSET 0.000000 0.000000 0.000000
		CHANNELS 3 Zrotation Yrotation Xrotation
		JOINT LeftUpLeg
		{
			OFFSET 1.363060 -1.794630 0.839290
			CHANNELS 3 Zrotation Yrotation Xrotation
			JOINT LeftLeg
			{
				OFFSET 2.448110 -6.726130 0.000000
				CHANNELS 3 Zrotation Yrotation Xrotation
				JOINT LeftFoot
				{
					OFFSET 2.562200 -7.039590 0.000000
					CHANNELS 3 Zrotation Yrotation Xrotation
					JOINT LeftToeBase
					{
						OFFSET 0.157640 -0.433110 2.322550
						CHANNELS 3 Zrotation Yrotation Xrotation
						End Site
						{
							OFFSET 0.000000 0.000000 0.000000
						}
					}
				}
			}
		}
	}
	JOINT RHipJoint
	{
		OFFSET 0.000000 0.000000 0.000000
		CHANNELS 3 Zrotation Yrotation Xrotation
		JOINT RightUpLeg
		{
			OFFSET -1.305520 -1.794630 0.839290
			CHANNELS 3 Zrotation Yrotation Xrotation
			JOINT RightLeg
			{
				OFFSET -2.542530 -6.985550 0.000000
				CHANNELS 3 Zrotation Yrotation Xrotation
				JOINT RightFoot
				{
					OFFSET -2.568260 -7.056230 0.000000
					CHANNELS 3 Zrotation Yrotation Xrotation
					JOINT RightToeBase
					{
						OFFSET -0.164730 -0.452590 2.363150
						CHANNELS 3 Zrotation Yrotation Xrotation
						End Site
						{
							OFFSET 0.000000 0.000000 0.000000
						}
					}
				}
			}
		}
	}
	JOINT LowerBack
	{
		OFFSET 0.000000 0.000000 0.000000
		CHANNELS 3 Zrotation Yrotation Xrotation
		JOINT Spine
		{
			OFFSET 0.028270 2.035590 -0.193380
			CHANNELS 3 Zrotation Yrotation Xrotation
			JOINT Spine1
			{
				OFFSET 0.056720 2.048850 -0.042750
				CHANNELS 3 Zrotation Yrotation Xrotation
				JOINT Neck
				{
					OFFSET 0.000000 0.000000 0.000000
					CHANNELS 3 Zrotation Yrotation Xrotation
					JOINT Neck1
					{
						OFFSET -0.054170 1.746240 0.172020
						CHANNELS 3 Zrotation Yrotation Xrotation
						JOINT Head
						{
							OFFSET 0.104070 1.761360 -0.123970
							CHANNELS 3 Zrotation Yrotation Xrotation
							End Site
							{
								OFFSET 0.000000 0.000000 0.000000
							}
						}
					}
				}
				JOINT LeftShoulder
				{
					OFFSET 0.000000 0.000000 0.000000
					CHANNELS 3 Zrotation Yrotation Xrotation
					JOINT LeftArm
					{
						OFFSET 3.362410 1.200890 -0.311210
						CHANNELS 3 Zrotation Yrotation Xrotation
						JOINT LeftForeArm
						{
							OFFSET 4.983000 -0.000000 -0.000000
							CHANNELS 3 Zrotation Yrotation Xrotation
							JOINT LeftHand
							{
								OFFSET 3.483560 -0.000000 -0.000000
								CHANNELS 3 Zrotation Yrotation Xrotation
								JOINT LeftFingerBase
								{
									OFFSET 0.000000 0.000000 0.000000
									CHANNELS 3 Zrotation Yrotation Xrotation
									JOINT LeftHandIndex1
									{
										OFFSET 0.715260 -0.000000 -0.000000
										CHANNELS 3 Zrotation Yrotation Xrotation
										End Site
										{
											OFFSET 0.000000 0.000000 0.000000
										}
									}
								}
								JOINT LThumb
								{
									OFFSET 0.000000 0.000000 0.000000
									CHANNELS 3 Zrotation Yrotation Xrotation
									End Site
									{
										OFFSET 0.000000 0.000000 0.000000
									}
								}
							}
						}
					}
				}
				JOINT RightShoulder
				{
					OFFSET 0.000000 0.000000 0.000000
					CHANNELS 3 Zrotation Yrotation Xrotation
					JOINT RightArm
					{
						OFFSET -3.136600 1.374050 -0.404650
						CHANNELS 3 Zrotation Yrotation Xrotation
						JOINT RightForeArm
						{
							OFFSET -5.241900 -0.000000 -0.000000
							CHANNELS 3 Zrotation Yrotation Xrotation
							JOINT RightHand
							{
								OFFSET -3.444170 -0.000000 -0.000000
								CHANNELS 3 Zrotation Yrotation Xrotation
								JOINT RightFingerBase
								{
									OFFSET 0.000000 0.000000 0.000000
									CHANNELS 3 Zrotation Yrotation Xrotation
									JOINT RightHandIndex1
									{
										OFFSET -0.622530 -0.000000 -0.000000
										CHANNELS 3 Zrotation Yrotation Xrotation
										End Site
										{
											OFFSET 0.000000 0.000000 0.000000
										}
									}
								}
								JOINT RThumb
								{
									OFFSET 0.000000 0.000000 0.000000
									CHANNELS 3 Zrotation Yrotation Xrotation
									End Site
									{
										OFFSET 0.000000 0.000000 0.000000
									}
								}
							}
						}
					}
				}
			}
		}
	}
}
MOTION
Frames: 9
Frame Time: 0.016667
-0.079369 16.940447 -0.206668 -6.891179 -1.588719 -3.928874 -1.233199 11.527451 -1.670278 -14.353127 -6.778832 -12.552075 10.056185 -4.841117 -10.681831 0.463009 14.575509 43.736344 0.000000 0.000000 0.000000 -12.307035 -15.926667 -8.770953 30.804594 -2.918433 4.408872 -5.705494 -2.157611 3.346073 0.625679 -12.070625 29.290365 0.000000 0.000000 0.000000 6.522063 1.277731 5.721858 -1.536904 1.037144 49.319941 -4.221443 -0.742988 -42.413666 6.915832 0.227319 -21.024860 1.760856 -0.190296 9.387198 0.000000 0.000000 0.000000 -3.979894 8.898032 -6.331504 -71.656979 -7.039815 42.477407 -15.322324 -75.881955 0.476637 0.594512 3.268043 0.241171 0.546890 3.264039 0.000000 0.000000 0.000000 0.000000 0.000000 0.000000 0.000000 -8.252178 -9.014640 7.654463 87.926715 14.774326 2.250520 40.668110 11.522739 -0.007808 2.795178 8.164442 -0.004426 2.783512 8.169059 0.000000 0.000000 0.000000 0.000000 0.000000 0.000000 0.000000 
-0.101401 17.139531 0.036355 -8.292714 -4.442393 -4.073015 -1.192708 15.517215 4.138157 -12.342123 -8.503480 -16.159395 11.618631 -6.430037 -14.602387 1.336315 16.397325 49.250203 0.000000 0.000000 0.000000 -14.959469 -18.774775 -10.686457 38.496633 -6.807699 11.046581 -11.569537 0.662341 -3.434424 1.119202 -15.195974 40.719141 0.000000 0.000000 0.000000 7.880391 1.328920 1.924905 -4.535646 2.369108 59.472641 1.133503 1.430062 -45.322810 10.157293 -2.122040 -24.428646 -3.269484 -0.759467 9.331353 0.000000 0.000000 0.000000 -4.987173 8.648796 -3.384040 -70.180393 -12.917257 30.551241 -24.409713 -65.155108 0.297487 1.523154 2.045743 0.150171 1.494856 2.047149 0.000000 0.000000 0.000000 0.000000 0.000000 0.000000 0.000000 -4.306279 -6.739911 3.532984 82.079199 14.952902 8.733826 48.458008 28.549876 -0.001937 0.900188 5.038566 -0.001425 0.889280 5.042972 0.000000 0.000000 0.000000 0.000000 0.000000 0.000000 0.000000 
-0.121475 17.842648 0.278669 -7.866049 -7.867215 -0.650214 -11.861266 13.168423 9.336309 3.090143 -7.079450 -25.459479 9.473795 -4.887784 -16.068403 5.380424 22.816092 57.720059 0.000000 0.000000 0.000000 -6.226694 -17.124958 -5.836549 33.526823 -1.169872 2.337058 -15.380728 1.117894 -5.322306 1.090763 -17.456879 47.116257 0.000000 0.000000 0.000000 10.278506 4.434959 -6.650727 -17.382917 10.997169 81.581286 18.908098 7.402835 -53.057203 25.809882 -7.015373 -30.684840 -15.263763 -3.066020 4.542276 0.000000 0.000000 0.000000 -7.283111 10.128096 -5.265834 -60.275990 -19.124855 21.899612 -39.620729 -54.289115 -0.234926 3.971825 -0.704426 -0.117568 3.977642 -0.700693 0.000000 0.000000 0.000000 0.000000 0.000000 0.000000 0.000000 1.147672 0.283177 -1.465996 75.039413 20.508145 16.952680 53.311178 41.746992 0.080307 -0.513463 2.562119 0.040098 -0.514945 2.563464 0.000000 0.000000 0.000000 0.000000 0.000000 0.000000 0.000000 
-0.325528 18.094294 0.520482 -6.300073 -3.086770 2.298420 -12.327955 12.919675 8.660505 1.955885 -7.557316 -25.306647 7.010711 -7.618174 -20.247858 7.636189 23.966884 62.730474 0.000000 0.000000 0.000000 3.971881 -16.245877 1.736995 21.255537 5.918252 -12.590827 -16.640204 -0.992195 -0.240306 1.864687 -16.079878 41.467766 0.000000 0.000000 0.000000 1.851479 3.014096 -12.365939 -8.977198 6.182030 91.356425 17.158326 7.977490 -57.810227 25.443257 -7.039844 -32.310824 -13.792160 -3.041810 4.964395 0.000000 0.000000 0.000000 -5.018842 12.160474 -7.760006 -66.860092 -20.481544 26.006924 -26.315005 -62.662148 -0.003282 2.887085 0.698839 -0.000990 2.875848 0.701108 0.000000 0.000000 0.000000 0.000000 0.000000 0.000000 0.000000 -1.104472 0.292078 -2.739483 76.251541 22.861465 16.162699 54.408939 38.446507 0.012349 -0.741456 3.230846 0.005927 -0.748547 3.232910 0.000000 0.000000 0.000000 0.000000 0.000000 0.000000 0.000000 
-0.530229 18.342900 0.866385 -2.738607 2.908490 5.337022 -14.215144 11.694832 7.400054 0.207112 -8.813600 -25.839280 4.628875 -8.894912 -20.064567 8.044216 23.419574 64.089493 0.000000 0.000000 0.000000 18.737097 -14.694427 10.487478 -3.330726 7.392494 -33.591529 -14.473395 -5.415390 9.041797 1.240862 -15.875426 36.570834 0.000000 0.000000 0.000000 -7.600617 1.151357 -16.951941 -2.197437 1.419912 99.627234 15.932746 7.876316 -62.427230 22.098662 -6.691933 -31.304992 -10.800331 -2.645862 4.878579 0.000000 0.000000 0.000000 -1.704687 13.793847 -10.183187 -74.609585 -22.133916 27.804011 -13.549910 -66.950614 0.215049 1.529713 1.746913 0.109095 1.502464 1.744398 0.000000 0.000000 0.000000 0.000000 0.000000 0.000000 0.000000 -1.814235 -1.626258 -4.556960 76.966648 24.194071 15.607312 56.155418 35.021614 -0.050819 -0.928216 3.936421 -0.025878 -0.941549 3.939119 0.000000 0.000000 0.000000 0.000000 0.000000 0.000000 0.000000 
-0.884886 18.500250 1.065890 -0.707912 12.020080 6.039301 -13.277537 8.287915 5.208259 -1.904610 -9.600836 -22.775011 1.414398 -9.966455 -18.947975 8.100732 22.416792 64.996692 0.000000 0.000000 0.000000 29.967508 -6.474475 9.843839 -20.538841 -1.918165 -33.636218 -12.012852 -12.495917 16.324600 -0.599278 -19.488701 34.768581 0.000000 0.000000 0.000000 -17.979943 -0.327487 -12.830057 5.809256 -4.785103 99.181322 16.343832 7.249116 -66.148574 19.609898 -5.949000 -27.289569 -7.834712 -2.025243 4.702176 0.000000 0.000000 0.000000 -0.776453 14.872992 -12.229000 -79.773722 -22.057746 31.531727 -5.985583 -69.645491 0.364474 0.392469 2.638715 0.184716 0.353075 2.630161 0.000000 0.000000 0.000000 0.000000 0.000000 0.000000 0.000000 0.105528 -4.856621 -5.382293 77.728739 22.561294 13.889249 55.492059 28.139553 -0.085342 -0.928450 4.309282 -0.043201 -0.944225 4.312131 0.000000 0.000000 0.000000 0.000000 0.000000 0.000000 0.000000 
-1.239978 18.656605 1.260486 -0.921047 18.047142 6.852153 -10.673770 5.747813 2.799649 -3.110747 -9.894334 -20.545300 -1.128260 -10.374565 -17.731307 8.303664 21.688440 65.740566 0.000000 0.000000 0.000000 33.764355 -0.720779 6.435066 -24.871269 -5.853748 -28.976494 -12.134829 -17.334338 20.641316 -0.981529 -22.879363 35.842936 0.000000 0.000000 0.000000 -24.533548 0.541836 -7.864431 12.549453 -8.171823 95.570065 17.122232 7.003886 -69.121641 17.726457 -5.129523 -22.793589 -5.110195 -1.433387 4.464436 0.000000 0.000000 0.000000 -0.058702 15.660043 -13.968538 -84.773024 -21.714852 35.182919 0.048863 -70.843317 0.445334 -0.567829 2.972411 0.226023 -0.614834 2.956864 0.000000 0.000000 0.000000 0.000000 0.000000 0.000000 0.000000 2.007478 -7.845253 -6.447270 78.382742 20.088303 12.621904 54.039631 21.831952 -0.108098 -0.946794 4.645876 -0.054604 -0.964133 4.648537 0.000000 0.000000 0.000000 0.000000 0.000000 0.000000 0.000000 
-1.406322 18.724965 1.477325 -1.176214 19.011678 7.773767 -9.980046 4.950179 2.730046 -2.253811 -10.171684 -20.525085 -1.268639 -10.831079 -18.103222 8.423563 21.617662 65.787085 0.000000 0.000000 0.000000 35.956615 1.414852 5.359249 -26.980968 -7.188204 -28.335112 -12.406037 -18.855781 22.840370 -0.756409 -23.717422 36.431690 0.000000 0.000000 0.000000 -27.662042 0.875305 -6.904227 15.054409 -9.214317 92.220376 18.790779 6.993164 -67.650808 17.059487 -4.935080 -19.788799 -4.241054 -1.216424 4.315527 0.000000 0.000000 0.000000 0.260978 15.779716 -14.018917 -86.005801 -21.792430 35.029910 1.362144 -70.139561 0.473222 -0.733075 2.914391 0.240204 -0.782379 2.897101 0.000000 0.000000 0.000000 0.000000 0.000000 0.000000 0.000000 4.081892 -8.420353 -6.352893 77.637825 20.091432 11.444850 52.020665 18.014325 -0.104321 -0.932110 4.475944 -0.052611 -0.947318 4.478174 0.000000 0.000000 0.000000 0.000000 0.000000 0.000000 0.000000 
-1.568540 18.791183 1.691973 -1.409249 19.600123 8.694336 -9.309967 4.302081 2.699384 -1.423474 -10.407027 -20.580260 -1.255361 -11.189544 -18.483107 8.533021 21.595657 65.801045 0.000000 0.000000 0.000000 37.908219 3.514118 4.330128 -28.843645 -8.300865 -27.641120 -12.795367 -20.183340 24.793183 -0.497906 -24.510949 37.170266 0.000000 0.000000 0.000000 -30.480635 1.102704 -6.021037 16.935924 -9.719696 88.689968 20.493342 7.063957 -65.907458 16.349891 -4.699636 -16.731517 -3.320642 -1.000589 4.252747 0.000000 0.000000 0.000000 0.594592 15.732705 -13.916973 -87.040066 -21.899108 34.770484 2.593803 -69.388812 0.502021 -0.884558 2.855027 0.254838 -0.936185 2.836008 0.000000 0.000000 0.000000 0.000000 0.000000 0.000000 0.000000 6.295511 -8.938673 -6.295035 76.742286 19.955935 10.442891 49.905777 14.593035 -0.098762 -0.904586 4.307018 -0.049745 -0.917819 4.308877 0.000000 0.000000 0.000000 0.000000 0.000000 0.000000 0.000000 
